<?xml version="1.0" encoding="UTF-8"?>
<svg height="128px" viewBox="0 0 128 128" width="128px" xmlns="http://www.w3.org/2000/svg">
    <filter id="a" height="100%" width="100%" x="0%" y="0%">
        <feColorMatrix color-interpolation-filters="sRGB" values="0 0 0 0 1 0 0 0 0 1 0 0 0 0 1 0 0 0 1 0"/>
    </filter>
    <linearGradient id="b" gradientUnits="userSpaceOnUse" x1="3.848185" x2="124.152569" y1="63.978488" y2="63.978488">
        <stop offset="0" stop-color="#1d1a2a"/>
        <stop offset="0.248498" stop-color="#231e30"/>
        <stop offset="0.497561" stop-color="#171421"/>
        <stop offset="0.753338" stop-color="#231e30"/>
        <stop offset="1" stop-color="#1d1a2a"/>
    </linearGradient>
    <linearGradient id="c" gradientUnits="userSpaceOnUse" x1="57.89117" x2="70.109584" y1="63.03861" y2="63.03861">
        <stop offset="0" stop-color="#613583"/>
        <stop offset="0.250208" stop-color="#6a3b8f"/>
        <stop offset="0.500417" stop-color="#74419c"/>
        <stop offset="0.750208" stop-color="#6a3b8f"/>
        <stop offset="1" stop-color="#613583"/>
    </linearGradient>
    <linearGradient id="d" gradientUnits="userSpaceOnUse" spreadMethod="reflect" x1="34.23678730202" x2="93.7639395355" y1="235.0168701028" y2="235.0168701028">
        <stop offset="0" stop-color="#241f31"/>
        <stop offset="0.502977" stop-color="#4b4065"/>
        <stop offset="1" stop-color="#241f31"/>
    </linearGradient>
    <linearGradient id="f" gradientUnits="userSpaceOnUse" x1="29.3836952177" x2="98.6170265217" y1="235.01685338738" y2="235.01685338738">
        <stop offset="0" stop-color="#241f31"/>
        <stop offset="0.5" stop-color="#4b4065"/>
        <stop offset="1" stop-color="#241f31"/>
    </linearGradient>
    <linearGradient id="g" gradientUnits="userSpaceOnUse" x1="24.53109380326" x2="103.46909589056" y1="235.01694710944" y2="235.01694710944">
        <stop offset="0" stop-color="#241f31"/>
        <stop offset="0.5" stop-color="#4b4065"/>
        <stop offset="1" stop-color="#241f31"/>
    </linearGradient>
    <linearGradient id="h" gradientUnits="userSpaceOnUse" x1="19.6787088187" x2="108.32199180037" y1="235.01682212001" y2="235.01682212001">
        <stop offset="0" stop-color="#241f31"/>
        <stop offset="0.5" stop-color="#4b4065"/>
        <stop offset="1" stop-color="#241f31"/>
    </linearGradient>
    <linearGradient id="i" gradientUnits="userSpaceOnUse" x1="14.82668812852" x2="113.17401457713" y1="235.01682426914" y2="235.01682426914">
        <stop offset="0" stop-color="#241f31"/>
        <stop offset="0.5" stop-color="#4b4065"/>
        <stop offset="1" stop-color="#241f31"/>
    </linearGradient>
    <linearGradient id="j" gradientUnits="userSpaceOnUse" x1="9.97446007242" x2="118.02568149394" y1="235.01686765711" y2="235.01686765711">
        <stop offset="0" stop-color="#241f31"/>
        <stop offset="0.5" stop-color="#4b4065"/>
        <stop offset="1" stop-color="#241f31"/>
    </linearGradient>
    <linearGradient id="k" gradientUnits="userSpaceOnUse" x1="5.08103179341" x2="122.91972479483" y1="235.01700611195" y2="235.01700611195">
        <stop offset="0" stop-color="#241f31"/>
        <stop offset="0.5" stop-color="#4b4065"/>
        <stop offset="1" stop-color="#241f31"/>
    </linearGradient>
    <clipPath id="l">
        <path d="m 0 0 h 128 v 128 h -128 z m 0 0"/>
    </clipPath>
    <clipPath id="m">
        <rect height="128" width="128"/>
    </clipPath>
    <clipPath id="n">
        <rect height="128" width="128"/>
    </clipPath>
    <mask id="o">
        <g filter="url(#a)">
            <g clip-path="url(#n)" filter="url(#a)">
                <g clip-path="url(#m)">
                    <path d="m 64 3.828125 c -33.222656 0 -60.152344 26.929687 -60.152344 60.148437 c 0 33.222657 26.929688 60.152344 60.152344 60.152344 s 60.152344 -26.929687 60.152344 -60.152344 c 0 -33.21875 -26.929688 -60.148437 -60.152344 -60.148437 z m 0 54.042969 c 3.375 0 6.109375 2.734375 6.109375 6.105468 c 0 3.375 -2.734375 6.109376 -6.109375 6.109376 s -6.109375 -2.734376 -6.109375 -6.109376 c 0 -3.371093 2.734375 -6.105468 6.109375 -6.105468 z m 0 0" fill="url(#b)"/>
                    <path d="m 64 2.886719 c -33.222656 0 -60.152344 26.929687 -60.152344 60.152343 c 0 33.21875 26.929688 60.152344 60.152344 60.152344 s 60.152344 -26.933594 60.152344 -60.152344 c 0 -33.222656 -26.929688 -60.152343 -60.152344 -60.152343 z m 0 54.042969 c 3.375 0 6.109375 2.734374 6.109375 6.109374 s -2.734375 6.109376 -6.109375 6.109376 s -6.109375 -2.734376 -6.109375 -6.109376 s 2.734375 -6.109374 6.109375 -6.109374 z m 0 0" fill="#292236"/>
                    <path d="m 64 40.953125 c -13.234375 0 -23.964844 10.308594 -23.964844 23.023437 c 0 12.71875 10.730469 23.027344 23.964844 23.027344 c 13.238281 0 23.96875 -10.308594 23.96875 -23.027344 c 0 -12.714843 -10.730469 -23.023437 -23.96875 -23.023437 z m 0 17.15625 c 3.375 0 6.109375 2.628906 6.109375 5.867187 c 0 3.242188 -2.734375 5.871094 -6.109375 5.871094 s -6.109375 -2.628906 -6.109375 -5.871094 c 0 -3.238281 2.734375 -5.867187 6.109375 -5.867187 z m 0 0" fill="url(#c)"/>
                    <path d="m 64 39.070312 c -13.234375 0 -23.964844 10.730469 -23.964844 23.96875 c 0 13.234376 10.730469 23.964844 23.964844 23.964844 c 13.238281 0 23.96875 -10.730468 23.96875 -23.964844 c 0 -13.238281 -10.730469 -23.96875 -23.96875 -23.96875 z m 0 17.859376 c 3.375 0 6.109375 2.734374 6.109375 6.109374 s -2.734375 6.109376 -6.109375 6.109376 s -6.109375 -2.734376 -6.109375 -6.109376 s 2.734375 -6.109374 6.109375 -6.109374 z m 0 0" fill="#813d9c"/>
                    <path d="m 93.514712 235.017498 c 0 16.30174 -13.21299 29.51473 -29.51473 29.51473 c -16.301741 0 -29.51473 -13.21299 -29.51473 -29.51473 c 0 -16.301741 13.212989 -29.51473 29.51473 -29.51473 c 16.30174 0 29.51473 13.212989 29.51473 29.51473 z m 0 0" fill="none" stroke="url(#d)" stroke-width="1.59066" transform="matrix(0.95609 0 0 0.95609 2.810232 -161.658909)"/>
                    <path d="m 98.368463 235.017498 c 0 18.981926 -15.386555 34.368481 -34.368481 34.368481 c -18.981927 0 -34.368482 -15.386555 -34.368482 -34.368481 c 0 -18.981927 15.386555 -34.368482 34.368482 -34.368482 c 18.981926 0 34.368481 15.386555 34.368481 34.368482 z m 0 0" fill="none" stroke="url(#f)" stroke-width="1.58763" transform="matrix(0.95609 0 0 0.95609 2.810232 -161.658909)"/>
                    <path d="m 103.222215 235.017498 c 0 21.662112 -17.560121 39.218147 -39.222233 39.218147 c -21.662113 0 -39.222233 -17.556035 -39.222233 -39.218147 c 0 -21.662113 17.56012 -39.222233 39.222233 -39.222233 c 21.662112 0 39.222233 17.56012 39.222233 39.222233 z m 0 0" fill="none" stroke="url(#g)" stroke-width="1.58533" transform="matrix(0.95609 0 0 0.95609 2.810232 -161.658909)"/>
                    <path d="m 108.075966 235.017498 c 0 24.342298 -19.733686 44.071898 -44.075984 44.071898 c -24.342299 0 -44.071899 -19.7296 -44.071899 -44.071898 s 19.7296 -44.075984 44.071899 -44.075984 c 24.342298 0 44.075984 19.733686 44.075984 44.075984 z m 0 0" fill="none" stroke="url(#h)" stroke-width="1.58355" transform="matrix(0.95609 0 0 0.95609 2.810232 -161.658909)"/>
                    <path d="m 112.925632 235.017498 c 0 27.018398 -21.903166 48.92565 -48.92565 48.92565 s -48.92565 -21.907252 -48.92565 -48.92565 c 0 -27.022484 21.903166 -48.92565 48.92565 -48.92565 s 48.92565 21.903166 48.92565 48.92565 z m 0 0" fill="none" stroke="url(#i)" stroke-width="1.5821" transform="matrix(0.95609 0 0 0.95609 2.810232 -161.658909)"/>
                    <path d="m 117.779383 235.017498 c 0 29.698584 -24.076731 53.779401 -53.779401 53.779401 s -53.779401 -24.080817 -53.779401 -53.779401 c 0 -29.70267 24.076731 -53.779401 53.779401 -53.779401 s 53.779401 24.076731 53.779401 53.779401 z m 0 0" fill="none" stroke="url(#j)" stroke-width="1.58091" transform="matrix(0.95609 0 0 0.95609 2.810232 -161.658909)"/>
                    <g clip-path="url(#l)">
                        <path d="m 122.673991 235.017498 c 0 32.403284 -26.270725 58.669923 -58.674009 58.669923 c -32.403285 0 -58.669924 -26.266639 -58.669924 -58.669923 s 26.266639 -58.674009 58.669924 -58.674009 c 32.403284 0 58.674009 26.270725 58.674009 58.674009 z m 0 0" fill="none" stroke="url(#k)" stroke-width="1.57992" transform="matrix(0.95609 0 0 0.95609 2.810232 -161.658909)"/>
                    </g>
                </g>
            </g>
        </g>
    </mask>
    <mask id="p">
        <g filter="url(#a)">
            <rect fill-opacity="0.8" height="184.32" width="184.32" x="-28.16" y="-28.16"/>
        </g>
    </mask>
    <linearGradient id="q" gradientTransform="matrix(0 0.37 -0.98462 0 295.38501 -30.360001)" gradientUnits="userSpaceOnUse" x1="300" x2="428" y1="235" y2="235">
        <stop offset="0" stop-color="#f9f06b"/>
        <stop offset="1" stop-color="#f5c211"/>
    </linearGradient>
    <clipPath id="r">
        <rect height="128" width="128"/>
    </clipPath>
    <clipPath id="s">
        <rect height="128" width="128"/>
    </clipPath>
    <path d="m 64 3.828125 c -33.222656 0 -60.152344 26.929687 -60.152344 60.148437 c 0 33.222657 26.929688 60.152344 60.152344 60.152344 s 60.152344 -26.929687 60.152344 -60.152344 c 0 -33.21875 -26.929688 -60.148437 -60.152344 -60.148437 z m 0 54.042969 c 3.375 0 6.109375 2.734375 6.109375 6.105468 c 0 3.375 -2.734375 6.109376 -6.109375 6.109376 s -6.109375 -2.734376 -6.109375 -6.109376 c 0 -3.371093 2.734375 -6.105468 6.109375 -6.105468 z m 0 0" fill="url(#b)"/>
    <path d="m 64 2.886719 c -33.222656 0 -60.152344 26.929687 -60.152344 60.152343 c 0 33.21875 26.929688 60.152344 60.152344 60.152344 s 60.152344 -26.933594 60.152344 -60.152344 c 0 -33.222656 -26.929688 -60.152343 -60.152344 -60.152343 z m 0 54.042969 c 3.375 0 6.109375 2.734374 6.109375 6.109374 s -2.734375 6.109376 -6.109375 6.109376 s -6.109375 -2.734376 -6.109375 -6.109376 s 2.734375 -6.109374 6.109375 -6.109374 z m 0 0" fill="#292236"/>
    <path d="m 64 40.953125 c -13.234375 0 -23.964844 10.308594 -23.964844 23.023437 c 0 12.71875 10.730469 23.027344 23.964844 23.027344 c 13.238281 0 23.96875 -10.308594 23.96875 -23.027344 c 0 -12.714843 -10.730469 -23.023437 -23.96875 -23.023437 z m 0 17.15625 c 3.375 0 6.109375 2.628906 6.109375 5.867187 c 0 3.242188 -2.734375 5.871094 -6.109375 5.871094 s -6.109375 -2.628906 -6.109375 -5.871094 c 0 -3.238281 2.734375 -5.867187 6.109375 -5.867187 z m 0 0" fill="url(#c)"/>
    <path d="m 64 39.070312 c -13.234375 0 -23.964844 10.730469 -23.964844 23.96875 c 0 13.234376 10.730469 23.964844 23.964844 23.964844 c 13.238281 0 23.96875 -10.730468 23.96875 -23.964844 c 0 -13.238281 -10.730469 -23.96875 -23.96875 -23.96875 z m 0 17.859376 c 3.375 0 6.109375 2.734374 6.109375 6.109374 s -2.734375 6.109376 -6.109375 6.109376 s -6.109375 -2.734376 -6.109375 -6.109376 s 2.734375 -6.109374 6.109375 -6.109374 z m 0 0" fill="#813d9c"/>
    <g fill="none">
        <path d="m 93.514712 235.017498 c 0 16.30174 -13.21299 29.51473 -29.51473 29.51473 c -16.301741 0 -29.51473 -13.21299 -29.51473 -29.51473 c 0 -16.301741 13.212989 -29.51473 29.51473 -29.51473 c 16.30174 0 29.51473 13.212989 29.51473 29.51473 z m 0 0" stroke="url(#d)" stroke-width="1.59066" transform="matrix(0.95609 0 0 0.95609 2.810232 -161.658909)"/>
        <path d="m 98.368463 235.017498 c 0 18.981926 -15.386555 34.368481 -34.368481 34.368481 c -18.981927 0 -34.368482 -15.386555 -34.368482 -34.368481 c 0 -18.981927 15.386555 -34.368482 34.368482 -34.368482 c 18.981926 0 34.368481 15.386555 34.368481 34.368482 z m 0 0" stroke="url(#f)" stroke-width="1.58763" transform="matrix(0.95609 0 0 0.95609 2.810232 -161.658909)"/>
        <path d="m 103.222215 235.017498 c 0 21.662112 -17.560121 39.218147 -39.222233 39.218147 c -21.662113 0 -39.222233 -17.556035 -39.222233 -39.218147 c 0 -21.662113 17.56012 -39.222233 39.222233 -39.222233 c 21.662112 0 39.222233 17.56012 39.222233 39.222233 z m 0 0" stroke="url(#g)" stroke-width="1.58533" transform="matrix(0.95609 0 0 0.95609 2.810232 -161.658909)"/>
        <path d="m 108.075966 235.017498 c 0 24.342298 -19.733686 44.071898 -44.075984 44.071898 c -24.342299 0 -44.071899 -19.7296 -44.071899 -44.071898 s 19.7296 -44.075984 44.071899 -44.075984 c 24.342298 0 44.075984 19.733686 44.075984 44.075984 z m 0 0" stroke="url(#h)" stroke-width="1.58355" transform="matrix(0.95609 0 0 0.95609 2.810232 -161.658909)"/>
        <path d="m 112.925632 235.017498 c 0 27.018398 -21.903166 48.92565 -48.92565 48.92565 s -48.92565 -21.907252 -48.92565 -48.92565 c 0 -27.022484 21.903166 -48.92565 48.92565 -48.92565 s 48.92565 21.903166 48.92565 48.92565 z m 0 0" stroke="url(#i)" stroke-width="1.5821" transform="matrix(0.95609 0 0 0.95609 2.810232 -161.658909)"/>
        <path d="m 117.779383 235.017498 c 0 29.698584 -24.076731 53.779401 -53.779401 53.779401 s -53.779401 -24.080817 -53.779401 -53.779401 c 0 -29.70267 24.076731 -53.779401 53.779401 -53.779401 s 53.779401 24.076731 53.779401 53.779401 z m 0 0" stroke="url(#j)" stroke-width="1.58091" transform="matrix(0.95609 0 0 0.95609 2.810232 -161.658909)"/>
        <path d="m 122.673991 235.017498 c 0 32.403284 -26.270725 58.669923 -58.674009 58.669923 c -32.403285 0 -58.669924 -26.266639 -58.669924 -58.669923 s 26.266639 -58.674009 58.669924 -58.674009 c 32.403284 0 58.674009 26.270725 58.674009 58.674009 z m 0 0" stroke="url(#k)" stroke-width="1.57992" transform="matrix(0.95609 0 0 0.95609 2.810232 -161.658909)"/>
    </g>
    <g mask="url(#o)">
        <g clip-path="url(#s)">
            <g mask="url(#p)">
                <g clip-path="url(#r)">
                    <path d="m 128 80.640625 v 47.359375 h -128 v -47.359375 z m 0 0" fill="url(#q)"/>
                    <path d="m 13.308594 80.640625 l 47.355468 47.359375 h 21.214844 l -47.359375 -47.359375 z m 42.421875 0 l 47.363281 47.359375 h 21.214844 l -47.363282 -47.359375 z m 42.429687 0 l 29.839844 29.839844 v -21.210938 l -8.628906 -8.628906 z m -98.160156 7.90625 v 21.214844 l 18.238281 18.238281 h 21.214844 z m 0 0"/>
                </g>
            </g>
        </g>
    </g>
</svg>
