<?xml version="1.0" encoding="UTF-8"?>
<svg height="16px" viewBox="0 0 16 16" width="16px" xmlns="http://www.w3.org/2000/svg">
    <g fill="#222222">
        <path d="m 8 14 c 3.308594 0 6 -2.691406 6 -6 s -2.691406 -6 -6 -6 s -6 2.691406 -6 6 s 2.691406 6 6 6 z m 0 -14 c 4.421875 0 8 3.578125 8 8 s -3.578125 8 -8 8 s -8 -3.578125 -8 -8 s 3.578125 -8 8 -8 z m 0 0"/>
        <g stroke="#222222">
            <path d="m 8 10.578125 c 1.421875 0 2.578125 -1.15625 2.578125 -2.578125 s -1.15625 -2.578125 -2.578125 -2.578125 s -2.578125 1.15625 -2.578125 2.578125 s 1.15625 2.578125 2.578125 2.578125 z m 0 -6.015625 c 1.898438 0 3.4375 1.539062 3.4375 3.4375 s -1.539062 3.4375 -3.4375 3.4375 s -3.4375 -1.539062 -3.4375 -3.4375 s 1.539062 -3.4375 3.4375 -3.4375 z m 0 0" stroke-width="0.5"/>
            <path d="m 8 9.566406 c 0.863281 0 1.566406 -0.703125 1.566406 -1.566406 s -0.703125 -1.566406 -1.566406 -1.566406 s -1.566406 0.703125 -1.566406 1.566406 s 0.703125 1.566406 1.566406 1.566406 z m 0 -3.65625 c 1.15625 0 2.089844 0.933594 2.089844 2.089844 s -0.933594 2.089844 -2.089844 2.089844 s -2.089844 -0.933594 -2.089844 -2.089844 s 0.933594 -2.089844 2.089844 -2.089844 z m 0 0" stroke-width="0.75"/>
        </g>
    </g>
</svg>
